<svg width="230" height="230" viewBox="0 0 230 230" fill="none" xmlns="http://www.w3.org/2000/svg">
<path d="M227.7 0H85.1C83.835 0 82.8 1.16949 82.8 2.59887V20.791C82.8 22.2203 83.835 23.3898 85.1 23.3898H227.7C228.965 23.3898 230 22.2203 230 20.791V2.59887C230 1.16949 228.965 0 227.7 0ZM227.7 137.74H85.1C83.835 137.74 82.8 138.91 82.8 140.339V158.531C82.8 159.96 83.835 161.13 85.1 161.13H227.7C228.965 161.13 230 159.96 230 158.531V140.339C230 138.91 228.965 137.74 227.7 137.74ZM227.7 206.61H2.3C1.035 206.61 0 207.78 0 209.209V227.401C0 228.831 1.035 230 2.3 230H227.7C228.965 230 230 228.831 230 227.401V209.209C230 207.78 228.965 206.61 227.7 206.61ZM227.7 68.8701H2.3C1.035 68.8701 0 70.0395 0 71.4689V89.661C0 91.0904 1.035 92.2599 2.3 92.2599H227.7C228.965 92.2599 230 91.0904 230 89.661V71.4689C230 70.0395 228.965 68.8701 227.7 68.8701Z" fill="#FCA129"/>
</svg>
